# Blender v2.78 (sub 0) OBJ File: ''
# www.blender.org
mtllib bone.mtl
o Icosphere
v -0.042532 0.085065 0.030901
v -0.072361 0.044722 0.052573
v 0.027639 0.044722 0.085065
v -0.042532 0.085065 -0.030901
v -0.095106 -0.000000 0.030901
v 0.072361 -0.044722 -0.052573
v -0.027639 -0.044722 -0.085065
v -0.089443 -0.044722 -0.000000
v -0.027639 -0.044722 0.085065
v 0.072361 -0.044722 0.052573
v 0.000000 -0.100000 -0.000000
v 0.016246 0.085065 -0.050000
v 0.000000 0.100000 -0.000000
v 0.089443 0.044722 -0.000000
v 0.027639 0.044722 -0.085065
v -0.072361 0.044722 -0.052573
v -0.016246 -0.085065 -0.050000
v 0.042532 -0.085065 -0.030901
v 0.052573 0.085065 -0.000000
v 0.095106 -0.000000 0.030901
v 0.058779 -0.000000 0.080902
v 0.016246 0.085065 0.050000
v 0.042532 -0.085065 0.030901
v -0.016246 -0.085065 0.050000
v 0.068819 0.052574 -0.050000
v -0.026287 0.052574 -0.080901
v 0.085065 -0.052574 -0.000000
v -0.068819 -0.052574 0.050000
v -0.085065 0.052574 -0.000000
v -0.026287 0.052574 0.080901
v 0.068819 0.052574 0.050000
v 0.000000 -0.000000 -0.100000
v 0.058779 -0.000000 -0.080902
v -0.095106 -0.000000 -0.030901
v -0.058779 -0.000000 -0.080902
v -0.058779 -0.000000 0.080902
v 0.000000 -0.000000 0.100000
v 0.026287 -0.052574 -0.080901
v -0.052573 -0.085065 -0.000000
v 0.026287 -0.052574 0.080901
v -0.068819 -0.052574 -0.050000
v 0.095106 -0.000000 -0.030901
v 0.000000 0.100000 0.000000
v 0.000000 0.900000 0.000000
v 0.000000 0.100000 0.000000
v 0.000000 0.900000 0.000000
v 0.000000 0.100000 0.000000
v 0.000000 0.900000 0.000000
v 0.000000 0.100000 0.000000
v 0.000000 0.900000 0.000000
v -0.096182 0.196842 0.096182
v -0.096182 0.196842 -0.096182
v 0.096182 0.196842 -0.096182
v 0.096182 0.196842 0.096182
vt 0.0000 0.0000
vt 0.0000 0.0000
vt 0.0000 0.0000
vt 0.0000 0.0000
vt 0.0000 0.0000
vt 0.0000 0.0000
vt 0.0000 0.0000
vt 0.0000 0.0000
vt 0.0000 0.0000
vt 0.0000 0.0000
vt 0.0000 0.0000
vt 0.0000 0.0000
vt 0.0000 0.0000
vt 0.0000 0.0000
vt 0.0000 0.0000
vt 0.0000 0.0000
vt 0.0000 0.0000
vt 0.0000 0.0000
vt 0.0000 0.0000
vt 0.0000 0.0000
vt 0.0000 0.0000
vt 0.0000 0.0000
vt 0.0000 0.0000
vt 0.0000 0.0000
vt 0.0000 0.0000
vt 0.0000 0.0000
vt 0.0000 0.0000
vt 0.0000 0.0000
vt 0.0000 0.0000
vt 0.0000 0.0000
vt 0.0000 0.0000
vt 0.0000 0.0000
vt 0.0000 0.0000
vt 0.0000 0.0000
vt 0.0000 0.0000
vt 0.0000 0.0000
vt 0.0000 0.0000
vt 0.0000 0.0000
vt 0.0000 0.0000
vt 0.0000 0.0000
vt 0.0000 0.0000
vt 0.0000 0.0000
vt 0.0000 0.0000
vt 0.0000 0.0000
vt 0.0000 0.0000
vt 0.0000 0.0000
vt 0.0000 0.0000
vt 0.0000 0.0000
vt 0.0000 0.0000
vt 0.0000 0.0000
vt 0.0000 0.0000
vt 0.0000 0.0000
vt 0.0000 0.0000
vt 0.0000 0.0000
vn 0.1024 -0.9435 -0.3151
vn -0.8897 -0.3304 0.3151
vn 0.0247 -0.3304 0.9435
vn 0.1024 -0.9435 0.3151
vn -0.2680 -0.9435 0.1947
vn 0.7002 -0.6617 0.2680
vn -0.2680 -0.9435 -0.1947
vn -0.5746 -0.3304 -0.7488
vn 0.9050 -0.3304 0.2680
vn 0.5346 -0.3304 -0.7779
vn 0.8026 -0.1256 0.5831
vn -0.3066 -0.1256 0.9435
vn -0.9921 -0.1256 0.0000
vn -0.3066 -0.1256 -0.9435
vn 0.8026 -0.1256 -0.5831
vn 0.4089 0.6617 0.6284
vn -0.4713 0.6617 0.5831
vn -0.7002 0.6617 -0.2680
vn 0.0385 0.6617 -0.7488
vn 0.7240 0.6617 -0.1947
vn 0.2680 0.9435 -0.1947
vn 0.4911 0.7947 -0.3568
vn 0.4089 0.6617 -0.6284
vn -0.1024 0.9435 -0.3151
vn -0.1876 0.7947 -0.5773
vn -0.4713 0.6617 -0.5831
vn -0.3313 0.9435 0.0000
vn -0.6071 0.7947 0.0000
vn -0.7002 0.6617 0.2680
vn -0.1024 0.9435 0.3151
vn -0.1876 0.7947 0.5773
vn 0.0385 0.6617 0.7488
vn 0.2680 0.9435 0.1947
vn 0.4911 0.7947 0.3568
vn 0.7240 0.6617 0.1947
vn 0.8897 0.3304 -0.3151
vn 0.7947 0.1876 -0.5773
vn 0.5746 0.3304 -0.7488
vn -0.0247 0.3304 -0.9435
vn -0.3035 0.1876 -0.9342
vn -0.5346 0.3304 -0.7779
vn -0.9050 0.3304 -0.2680
vn -0.9822 0.1876 0.0000
vn -0.9050 0.3304 0.2680
vn -0.5346 0.3304 0.7779
vn -0.3035 0.1876 0.9342
vn -0.0247 0.3304 0.9435
vn 0.5746 0.3304 0.7488
vn 0.7947 0.1876 0.5773
vn 0.8897 0.3304 0.3151
vn 0.3066 0.1256 -0.9435
vn 0.3035 -0.1876 -0.9342
vn 0.0247 -0.3304 -0.9435
vn 0.9921 0.1256 0.0000
vn 0.9822 -0.1876 0.0000
vn 0.9050 -0.3304 -0.2680
vn -0.8026 0.1256 -0.5831
vn -0.7947 -0.1876 -0.5773
vn -0.8897 -0.3304 -0.3151
vn -0.4089 -0.6617 -0.6284
vn -0.4911 -0.7947 -0.3568
vn -0.7240 -0.6617 -0.1947
vn 0.7002 -0.6617 -0.2680
vn 0.6071 -0.7947 0.0000
vn 0.3313 -0.9435 0.0000
vn -0.7240 -0.6617 0.1947
vn -0.4911 -0.7947 0.3568
vn -0.4089 -0.6617 0.6284
vn -0.0385 -0.6617 0.7488
vn 0.1876 -0.7947 0.5773
vn 0.4713 -0.6617 0.5831
vn 0.3066 0.1256 0.9435
vn 0.3035 -0.1876 0.9342
vn 0.5346 -0.3304 0.7779
vn -0.8026 0.1256 0.5831
vn -0.7947 -0.1876 0.5773
vn -0.5746 -0.3304 0.7488
vn 0.4713 -0.6617 -0.5831
vn 0.1876 -0.7947 -0.5773
vn -0.0385 -0.6617 -0.7488
vn -0.9908 0.1355 0.0000
vn 0.0000 0.1355 -0.9908
vn 0.9908 0.1355 0.0000
vn 0.0000 0.1355 0.9908
vn 0.0000 0.0000 1.0000
vn 0.0000 -0.7047 0.7095
vn 0.7095 -0.7047 0.0000
vn 0.0000 -0.7047 -0.7095
vn -0.7095 -0.7047 0.0000
usemtl None
s off
f 11/1/1 17/2/1 18/3/1
f 8/4/2 28/5/2 5/6/2
f 9/7/3 40/8/3 37/9/3
f 11/1/4 23/10/4 24/11/4
f 11/1/5 24/11/5 39/12/5
f 10/13/6 23/10/6 27/14/6
f 11/1/7 39/12/7 17/2/7
f 7/15/8 41/16/8 35/17/8
f 10/13/9 27/14/9 20/18/9
f 6/19/10 38/20/10 33/21/10
f 10/13/11 20/18/11 21/22/11
f 9/7/12 37/9/12 36/23/12
f 8/4/13 5/6/13 34/24/13
f 7/15/14 35/17/14 32/25/14
f 6/19/15 33/21/15 42/26/15
f 3/27/16 31/28/16 22/29/16
f 2/30/17 30/31/17 1/32/17
f 16/33/18 29/34/18 4/35/18
f 15/36/19 26/37/19 12/38/19
f 14/39/20 25/40/20 19/41/20
f 19/41/21 12/38/21 13/42/21
f 19/41/22 25/40/22 12/38/22
f 25/40/23 15/36/23 12/38/23
f 12/38/24 4/35/24 13/42/24
f 12/38/25 26/37/25 4/35/25
f 26/37/26 16/33/26 4/35/26
f 4/35/27 1/32/27 13/42/27
f 4/35/28 29/34/28 1/32/28
f 29/34/29 2/30/29 1/32/29
f 1/32/30 22/29/30 13/42/30
f 1/32/31 30/31/31 22/29/31
f 30/31/32 3/27/32 22/29/32
f 22/29/33 19/41/33 13/42/33
f 22/29/34 31/28/34 19/41/34
f 31/28/35 14/39/35 19/41/35
f 42/26/36 25/40/36 14/39/36
f 42/26/37 33/21/37 25/40/37
f 33/21/38 15/36/38 25/40/38
f 32/25/39 26/37/39 15/36/39
f 32/25/40 35/17/40 26/37/40
f 35/17/41 16/33/41 26/37/41
f 34/24/42 29/34/42 16/33/42
f 34/24/43 5/6/43 29/34/43
f 5/6/44 2/30/44 29/34/44
f 36/23/45 30/31/45 2/30/45
f 36/23/46 37/9/46 30/31/46
f 37/9/47 3/27/47 30/31/47
f 21/22/48 31/28/48 3/27/48
f 21/22/49 20/18/49 31/28/49
f 20/18/50 14/39/50 31/28/50
f 33/21/51 32/25/51 15/36/51
f 33/21/52 38/20/52 32/25/52
f 38/20/53 7/15/53 32/25/53
f 20/18/54 42/26/54 14/39/54
f 20/18/55 27/14/55 42/26/55
f 27/14/56 6/19/56 42/26/56
f 35/17/57 34/24/57 16/33/57
f 35/17/58 41/16/58 34/24/58
f 41/16/59 8/4/59 34/24/59
f 17/2/60 41/16/60 7/15/60
f 17/2/61 39/12/61 41/16/61
f 39/12/62 8/4/62 41/16/62
f 27/14/63 18/3/63 6/19/63
f 27/14/64 23/10/64 18/3/64
f 23/10/65 11/1/65 18/3/65
f 39/12/66 28/5/66 8/4/66
f 39/12/67 24/11/67 28/5/67
f 24/11/68 9/7/68 28/5/68
f 24/11/69 40/8/69 9/7/69
f 24/11/70 23/10/70 40/8/70
f 23/10/71 10/13/71 40/8/71
f 37/9/72 21/22/72 3/27/72
f 37/9/73 40/8/73 21/22/73
f 40/8/74 10/13/74 21/22/74
f 5/6/75 36/23/75 2/30/75
f 5/6/76 28/5/76 36/23/76
f 28/5/77 9/7/77 36/23/77
f 18/3/78 38/20/78 6/19/78
f 18/3/79 17/2/79 38/20/79
f 17/2/80 7/15/80 38/20/80
f 51/43/81 44/44/81 46/45/81 52/46/81
f 52/46/82 46/45/82 50/47/82 53/48/82
f 53/48/83 50/47/83 48/49/83 54/50/83
f 54/50/84 48/49/84 44/44/84 51/43/84
f 45/51/85 49/52/85 47/53/85 43/54/85
f 50/47/85 46/45/85 44/44/85 48/49/85
f 47/53/86 54/50/86 51/43/86 43/54/86
f 49/52/87 53/48/87 54/50/87 47/53/87
f 45/51/88 52/46/88 53/48/88 49/52/88
f 43/54/89 51/43/89 52/46/89 45/51/89
